<svg xmlns="http://www.w3.org/2000/svg" width="24" height="24" viewBox="0 0 24 24"><title>Pepe SVG Icon</title><g fill="none"><g clip-path="url(#tokenBrandedPepe0)"><path fill="#4F9843" d="M0 0h24v24H0z"/><path fill="#fff" d="m10.38 9.034l.814.429l.103.064c.283.167.943.557 1.564.557c.57 0 1.307-.133 1.603-.201c-.064-.223-.257-.716-.527-.896a1.5 1.5 0 0 0-.801-.257l-1.809.03c-.33.034-.65.127-.947.274m4.556.669c.03-.154.171-.493.492-.613c.408-.154.768-.257 1.218-.219c.333.038.658.132.96.279c.017.021.15.201.158.313c.013.116-.15.463-.857.604a3.7 3.7 0 0 1-1.671-.111a.76.76 0 0 1-.3-.257z"/><path fill="#206814" d="m12.27 12.326l-2.035-.493c-.352-.086-.776-.125-.91.072c-.106.155.284.515.49.678l1.53.758c.54.24 2.09.72 4.002.72c1.916 0 2.443-.591 2.465-.891l-.06-.326v-.257c.12-.15.381-.502.45-.754c.068-.249-.129-.395-.24-.437l-.095.312l-.402.617a9 9 0 0 1-.695.305c-.325.128-1.028.055-1.11.055c-.085 0-1.444-.085-1.628-.102a26 26 0 0 1-1.758-.258z"/><path fill="#000" d="M9.223 5.571q-.405.466-.75.977A32 32 0 0 0 7.08 8.7a12.15 12.15 0 0 0-1.791 6.596c0 .69.184 1.225.48 1.637c.295.399.69.715 1.144.917a6.3 6.3 0 0 0 2.563.501c.57 0 .985-.021 1.44-.043h.115a35 35 0 0 1 1.908-.047c.664 0 1.041-.201 1.251-.441a.95.95 0 0 0 .231-.72a.074.074 0 0 1 .065-.082a.074.074 0 0 1 .081.065a1.12 1.12 0 0 1-.266.831c-.244.279-.668.493-1.362.493c-.845 0-1.402.021-1.899.043l-.12.008c-.45.018-.874.039-1.444.039c-.622 0-1.702-.077-2.623-.514a3 3 0 0 1-1.204-.965a2.9 2.9 0 0 1-.506-1.723c0-2.84.728-4.847 1.813-6.668q.656-1.108 1.397-2.16q.347-.514.754-.981l.009-.013l.077-.103c.068-.086.163-.189.3-.287c.42-.271.915-.4 1.414-.369c.523 0 .917.086 1.213.236c.257.128.437.313.561.527a1.98 1.98 0 0 1 1.372-.566c.446 0 .801.03 1.093.155c.291.128.505.355.673.724l.428.96c.3.171.536.356.673.488c.214.223.441.506.549.648c.192.085.36.214.475.407c.017.021.03.06.043.098l.022.146c.008.128 0 .291-.048.463c.039.085.078.206.09.351a.86.86 0 0 1-.107.515c-.111.192-.27.39-.407.548c.09.09.202.219.292.364c.102.159.188.343.201.527a.48.48 0 0 1 .231.318c.03.128 0 .278-.051.411a2.3 2.3 0 0 1-.446.673a.86.86 0 0 1 .125.403a.7.7 0 0 1-.24.51a1.85 1.85 0 0 1-.823.386c-.395.094-.922.15-1.62.15c-3.266 0-5.212-1.35-5.636-1.642l-.064-.043a.7.7 0 0 1-.18-.197a.55.55 0 0 1-.077-.257a.31.31 0 0 1 .098-.253a.5.5 0 0 1 .33-.103c.283 0 .686.107 1.114.232l.228.064c.372.111.754.223 1.114.296c.87.171 2.974.373 4.127.373c.561 0 .926-.172 1.166-.403s.364-.515.437-.75a.4.4 0 0 0 .021-.125c0-.154-.073-.33-.175-.493a2 2 0 0 0-.27-.33l-.125.13a1.03 1.03 0 0 1-.518.282a.074.074 0 0 1-.086-.06a.074.074 0 0 1 .06-.086a.82.82 0 0 0 .437-.24q.35-.344.613-.758a.7.7 0 0 0 .086-.429a1 1 0 0 0-.086-.321c-.116-.159-.523-.497-1.213-.497a1.46 1.46 0 0 0-1.003.385c.235-.096.488-.145.742-.141c.553 0 .921.098 1.157.231c.231.129.343.3.356.429a.35.35 0 0 1-.086.236a.9.9 0 0 1-.257.23c-.232.142-.587.258-1.067.258c-.472 0-.87-.03-1.145-.111a.7.7 0 0 1-.321-.172a.31.31 0 0 1-.064-.308v-.005c.042-.124.154-.295.338-.445l.004-.013a1.55 1.55 0 0 1 1.346-.72c.617 0 1.037.253 1.239.45q.024-.155.017-.279a.8.8 0 0 0-.33-.197a2.7 2.7 0 0 0-.926-.141c-.523 0-.853.12-1.05.244a1.1 1.1 0 0 0-.274.236l-.009.008l-.021.022a.073.073 0 0 1-.118-.064a.07.07 0 0 1 .024-.048l.008-.013l.073-.077c.051-.056.129-.128.24-.193c.345-.189.735-.28 1.127-.261c.429 0 .75.064.977.15q.13.045.215.103a.84.84 0 0 0-.356-.304a.07.07 0 0 1-.064-.03a1.6 1.6 0 0 0-.549-.103a3.1 3.1 0 0 0-1.106.184a.073.073 0 0 1-.051-.137a3.3 3.3 0 0 1 1.157-.193c.133 0 .266.017.39.047a3 3 0 0 0-1.17-.986a2.75 2.75 0 0 0-1.213-.317c-.364 0-.643.034-.848.082q-.154.03-.3.085q.062.083.115.172c.163.244.317.476.429.694c.124.24.201.471.163.686a.074.074 0 1 1-.146-.026c.03-.163-.026-.36-.146-.591c-.107-.215-.257-.437-.42-.686l-.043-.06a2 2 0 0 0-.12-.163c-.334-.386-.84-.57-1.834-.57c-1.011 0-1.5.63-1.633.814l-.025.03a.07.07 0 0 1-.078.023a.1.1 0 0 1-.025-.014a.073.073 0 0 1-.013-.103l.026-.03a2.12 2.12 0 0 1 1.748-.866c.424 0 .772.03 1.054.103a1.8 1.8 0 0 0-.141-.445a1.2 1.2 0 0 0-.549-.558a2.5 2.5 0 0 0-1.144-.214c-.686 0-1.084.163-1.328.339a1.2 1.2 0 0 0-.27.257l-.078.098zm3.677.557c.287.09.514.232.69.429c.077-.043.201-.086.369-.12a4 4 0 0 1 .878-.086c.437 0 .853.129 1.2.292l-.351-.793a1.16 1.16 0 0 0-.6-.647a2.6 2.6 0 0 0-1.029-.146c-.643 0-1.118.356-1.303.557c.069.163.116.33.146.514m4.779 6.729a.7.7 0 0 1-.202.189c-.176.107-.454.197-.87.214a23 23 0 0 1-3.068-.082a14 14 0 0 1-1.92-.291a4.6 4.6 0 0 1-1.5-.583a.07.07 0 0 1-.03-.077a.1.1 0 0 1 .012-.026a.066.066 0 0 1 .099-.017c.351.24.861.42 1.453.557c.587.142 1.247.232 1.898.292c1.299.12 2.542.107 3.052.085c.278.001.552-.066.797-.197c.15-.094.193-.188.197-.231v-.026l.022-.021a2.2 2.2 0 0 0 .458-.665a.6.6 0 0 0 .043-.33a.3.3 0 0 0-.107-.175l-.009.038a1.9 1.9 0 0 1-.48.815c-.346.31-.8.47-1.264.445a29 29 0 0 1-4.157-.381c-.364-.073-.754-.189-1.127-.296l-.223-.064c-.437-.129-.814-.223-1.072-.223c-.128 0-.197.03-.235.064a.17.17 0 0 0-.052.137c0 .06.022.129.06.189a.4.4 0 0 0 .129.146l.064.043c.42.29 2.34 1.62 5.559 1.62c.69 0 1.204-.06 1.585-.15c.378-.09.618-.215.759-.352a.53.53 0 0 0 .129-.643zM15.056 9.62a.18.18 0 0 0 .034.167a.54.54 0 0 0 .257.129c.249.077.634.103 1.102.103a1.9 1.9 0 0 0 .99-.232a.8.8 0 0 0 .218-.193c.043-.064.056-.107.056-.128c-.009-.073-.073-.202-.283-.322a2.2 2.2 0 0 0-1.084-.214c-.845 0-1.209.472-1.286.686z"/><path fill="#000" fill-rule="evenodd" d="M13.928 8.426c.45.392.82.868 1.089 1.401a.076.076 0 0 1-.034.099a.073.073 0 0 1-.099-.035a4.4 4.4 0 0 0-1.05-1.354a2.8 2.8 0 0 0-1.946-.75c-.985.039-1.543.236-1.843.441c-.295.21-.325.425-.3.515l.018.047q.016.063.034.094v.009a2.7 2.7 0 0 1 2.087-.913c.65.018 1.272.272 1.749.716c.231.068.428.291.57.522c.145.228.252.485.308.66a.27.27 0 0 1 .107.193q.016.162-.188.317a3 3 0 0 0-.227.202c-.348.33-.913.866-2.088 1.178a.073.073 0 0 1-.09-.051a.074.074 0 0 1 .052-.09a4.23 4.23 0 0 0 1.903-1.029a35 35 0 0 0-2.036-.098c-.343 0-.643-.142-.874-.317a2.2 2.2 0 0 1-.493-.527a.07.07 0 0 1 .003-.084a.1.1 0 0 1 .023-.02a.073.073 0 0 1 .098.022c.082.129.24.326.459.489c.214.167.484.291.784.291c.63 0 1.697.069 2.186.107c.077-.077.145-.141.214-.188c.116-.086.133-.155.129-.189a.13.13 0 0 0-.039-.077a5 5 0 0 1-1.371.184c-.866 0-1.496-.398-1.805-.595c-.24-.155-.741-.378-.96-.472l-.154-.068l.15-.069c.293-.147.606-.248.93-.3h2.177a2.53 2.53 0 0 0-2.653-.326a2.5 2.5 0 0 0-.63.455a3 3 0 0 1-.265.214a.15.15 0 0 1-.078.013c-.068-.005-.098-.065-.115-.103a1 1 0 0 1-.039-.112c0-.017-.008-.03-.013-.042c-.051-.172.026-.446.356-.678c.33-.231.917-.428 1.92-.471c.758-.01 1.49.272 2.044.789m-.343.407c.18.051.352.235.493.463c.129.197.223.42.279.582a5 5 0 0 1-1.299.168c-.814 0-1.414-.382-1.723-.575a8 8 0 0 0-.827-.415q.35-.161.729-.223z" clip-rule="evenodd"/><path fill="#000" d="m15.236 10.449l.085-.116c.129.06.322.09.519.103c.197.008.386 0 .497-.009a.073.073 0 0 1 .082.065c0 .042-.026.077-.065.085a3.6 3.6 0 0 1-.818-.03l.784.806a.084.084 0 0 1 0 .107a.07.07 0 0 1-.054.024a.07.07 0 0 1-.053-.024zm-6.249 1.435a.075.075 0 1 1-.146-.03l.026-.064l.056-.094a1 1 0 0 1 .236-.236c.214-.158.552-.27 1.045-.158a.073.073 0 0 1-.034.141c-.454-.103-.746.004-.926.137a.86.86 0 0 0-.257.304m.93-1.054c.034.017.047.064.03.099a.22.22 0 0 1-.141.107a.6.6 0 0 1-.172.021H9.46c-.052 0-.086.009-.108.013a.074.074 0 0 1-.083-.107a.07.07 0 0 1 .045-.034c.043-.013.094-.013.146-.013h.167a1 1 0 0 0 .137-.022c.043-.012.051-.025.056-.03a.073.073 0 0 1 .098-.034"/><path fill="#000" fill-rule="evenodd" d="M15.227 15.3c.06.056.12.128.163.201a.34.34 0 0 1-.06.416a.073.073 0 0 1-.103 0a.073.073 0 0 1 0-.098c.043-.043.06-.086.06-.125a.23.23 0 0 0-.03-.124a.7.7 0 0 0-.171-.193a.6.6 0 0 0-.313.412v.012a.26.26 0 0 0 0 .155c.021.043.06.09.158.102a.86.86 0 0 0 .498-.077l.75-.54h.621l.043.545l.536-.446a.07.07 0 0 1 .053-.017a.07.07 0 0 1 .05.026c.025.034.02.077-.01.102l-1.62 1.359a.7.7 0 0 0 .056.206a.5.5 0 0 0 .206.235c.197.112.442.086.557.056l.699-.883a.07.07 0 0 1 .103-.013c.03.026.034.073.008.103l-.707.896a.27.27 0 0 0-.017.201c.026.056.09.129.283.137c.206.013.339 0 .42-.021l.077-.034l.013-.013v-.004l.66-.819a.07.07 0 0 1 .077-.026q.015.004.026.013a.07.07 0 0 1 .013.103l-.643.802a.3.3 0 0 0 0 .17c.013.027.03.048.06.065q.037.032.133.039a.4.4 0 0 0 .205-.077c.086-.052.168-.129.253-.215a3.3 3.3 0 0 0 .412-.514a.074.074 0 0 1 .103-.017a.07.07 0 0 1 .021.099c-.094.145-.257.36-.433.54a1.7 1.7 0 0 1-.279.23a.5.5 0 0 1-.287.1a.4.4 0 0 1-.21-.06a.3.3 0 0 1-.111-.138a.4.4 0 0 1-.021-.111l-.03.009a1.6 1.6 0 0 1-.468.03c-.227-.018-.355-.103-.407-.232a.4.4 0 0 1-.021-.201a.86.86 0 0 1-.557-.086a.63.63 0 0 1-.27-.304a.5.5 0 0 1-.043-.12a.24.24 0 0 1-.206.017a.2.2 0 0 1-.12-.095a.26.26 0 0 1-.026-.132c0-.048.013-.095.026-.138a.5.5 0 0 1-.171-.171a.3.3 0 0 1-.035-.18a.5.5 0 0 1 .043-.171l.043-.099a.9.9 0 0 1-.377.017c-.15-.021-.236-.098-.27-.197a.4.4 0 0 1-.017-.223a1 1 0 0 0-.064-.128a.6.6 0 0 0-.125-.15a.28.28 0 0 0-.223-.052c-.081.017-.171.077-.248.227a.32.32 0 0 0-.034.193q.012.09.077.193q.098.153.223.287l.167.197c.128.168.18.378.193.566a1.6 1.6 0 0 1-.03.441c.214.386 1.015 1.153 2.644 1.153c.784 0 1.337-.12 1.71-.27c.364-.145.557-.325.63-.445v-.035a2 2 0 0 0-.15-.364a5.3 5.3 0 0 0-.592-.891c-.141-.189-.295-.403-.462-.605a2.9 2.9 0 0 0-.729-.677a1.76 1.76 0 0 1-.57-.54a1.06 1.06 0 0 0-.54-.403a.48.48 0 0 0-.351.043c-.12.056-.24.15-.36.257c-.078.069-.146.142-.215.21l-.128.129a2 2 0 0 1-.219.184zm4.453 2.6a2.3 2.3 0 0 0-.159-.377a5 5 0 0 0-.45-.694l-.15-.21c-.141-.189-.3-.407-.471-.613a3 3 0 0 0-.771-.711a1.6 1.6 0 0 1-.528-.502a1.2 1.2 0 0 0-.608-.454a.62.62 0 0 0-.454.047a1.7 1.7 0 0 0-.399.287l-.227.215l-.12.12a1 1 0 0 1-.279.218a.8.8 0 0 0-.377.356a.7.7 0 0 0-.163-.193a.43.43 0 0 0-.343-.082c-.128.03-.257.125-.347.305a.47.47 0 0 0-.051.278c.013.09.051.172.098.257a2 2 0 0 0 .24.3l.159.193a.85.85 0 0 1 .163.485c.013.171-.009.334-.034.428l-.005.022l.013.025c.214.433 1.076 1.256 2.786 1.256c.797 0 1.371-.12 1.761-.279c.286-.093.535-.275.712-.518l.034-.064a.073.073 0 0 0-.03-.095m-4.157-1.8a.9.9 0 0 0-.142.236a.3.3 0 0 0-.034.133q-.006.063.013.086q.044.079.12.128l1.076-1.097h-.33l-.707.514zm1.153-.42l-1.106 1.123a.4.4 0 0 0-.043.146c0 .026 0 .043.009.056q.004.019.034.025c.056.018.086.005.099-.008a.2.2 0 0 0 .042-.06v-.026l1.003-.836l-.034-.42z" clip-rule="evenodd"/><path fill="#000" d="M13.517 7.834a2.7 2.7 0 0 0-.775.073a.073.073 0 0 1-.035-.141c.193-.052.51-.099.819-.078s.634.108.823.343c.18.227.283.497.334.742c.056.244.06.471.052.6a.07.07 0 0 1-.025.05a.07.07 0 0 1-.053.018a.073.073 0 0 1-.068-.077c.008-.12 0-.326-.047-.557a1.7 1.7 0 0 0-.305-.681c-.154-.189-.424-.27-.72-.292"/><path fill="#000" fill-rule="evenodd" d="M11.546 8.867c-.073.137-.257.467-.24.647c.193.116.668.378 1.033.493c.458.146.797-.27.797-.625a.87.87 0 0 0-.206-.57h-1.354zm.163.455a.187.187 0 0 0 0-.373a.187.187 0 0 0 0 .373m.128.325a.129.129 0 1 0 0-.257a.129.129 0 0 0 0 .257m.986-.278a.274.274 0 0 1-.376.257a.27.27 0 0 1-.168-.257a.27.27 0 0 1 .274-.275c.15 0 .274.12.274.275zm2.541.655c-.025-.24-.03-.771.163-.968c.197-.197.87-.227 1.183-.214c.094.085.27.364.244.728c-.025.36-.27.519-.39.557c-.257.013-.861.013-1.2-.103m.365-.514a.19.19 0 0 0 .188-.188a.19.19 0 0 0-.188-.189a.19.19 0 0 0-.185.189c0 .102.086.184.185.184zm.128.322a.129.129 0 1 0 0-.258a.129.129 0 0 0 0 .258m.99-.28a.277.277 0 0 1-.38.258a.27.27 0 0 1-.168-.257c0-.15.124-.274.274-.274s.274.124.274.274" clip-rule="evenodd"/><path fill="#000" d="M17.31 13.83a.77.77 0 0 1-.416.836l-.085-.193a.56.56 0 0 0 .287-.609z"/></g><defs><clipPath id="tokenBrandedPepe0"><path fill="#fff" d="M0 0h24v24H0z"/></clipPath></defs></g></svg>